<?xml version="1.0" encoding="utf-8"?>
<!-- Generator: Adobe Illustrator 18.1.0, SVG Export Plug-In . SVG Version: 6.00 Build 0)  -->
<!DOCTYPE svg PUBLIC "-//W3C//DTD SVG 1.1//EN" "http://www.w3.org/Graphics/SVG/1.1/DTD/svg11.dtd">
<svg version="1.1" id="Layer_1" xmlns="http://www.w3.org/2000/svg" xmlns:xlink="http://www.w3.org/1999/xlink" x="0px" y="0px"
	 viewBox="0 0 96 96" enable-background="new 0 0 96 96" xml:space="preserve">
<g>
	<path fill="#75ACB3" d="M72.1,90H23.9L0,48.2v42.1C0,93.5,2.5,96,5.7,96h84.7c3.1,0,5.7-2.5,5.7-5.7V48.2L72.1,90z"/>
	<path fill="#75ACB3" d="M72.1,6L96,47.8V5.7C96,2.5,93.5,0,90.3,0H5.7C2.5,0,0,2.5,0,5.7v42.1L23.9,6H72.1z"/>
	<polygon fill="#75ACB3" points="96.1,48 96,47.8 96,48.2 	"/>
	<polygon fill="#75ACB3" points="-0.1,48 0,48.2 0,47.8 	"/>
	<path fill="#75ACB3" d="M64.9,77l16.9-29L64.9,19H31.1L14.2,48l16.9,29H64.9z M37.7,30h20.6l10.3,18L58.3,66H37.7L27.4,48L37.7,30z
		"/>
	<polygon fill="#75ACB3" points="57.3,64 66.7,48 57.3,32 38.7,32 29.3,48 38.7,64 	"/>
</g>
</svg>
